<svg xmlns="http://www.w3.org/2000/svg" version="1.1" xmlns:xlink="http://www.w3.org/1999/xlink" xmlns:svgjs="http://svgjs.dev/svgjs" width="1500" height="1500" viewBox="0 0 1500 1500"><rect width="1500" height="1500" fill="#ffffff"></rect><g transform="matrix(0.6666666666666666,0,0,0.6666666666666666,250,437.6666666666667)"><svg viewBox="0 0 512 320" data-background-color="#ffffff" preserveAspectRatio="xMidYMid meet" height="937" width="1500" xmlns="http://www.w3.org/2000/svg" xmlns:xlink="http://www.w3.org/1999/xlink"><g id="tight-bounds" transform="matrix(1,0,0,1,0,0)"><svg viewBox="0 0 512 320" height="320" width="512"><g><svg></svg></g><g><svg viewBox="0 0 512 320" height="320" width="512"><g><path transform="translate(256,160) scale(160,160)" d="M-1 0c0-0.552 0.448-1 1-1 0.552 0 1 0.448 1 1 0 0.552-0.448 1-1 1-0.552 0-1-0.448-1-1z" fill="#233565" fill-rule="nonzero" stroke="none" stroke-width="1" stroke-linecap="butt" stroke-linejoin="miter" stroke-miterlimit="10" stroke-dasharray="" stroke-dashoffset="0" font-family="none" font-weight="none" font-size="none" text-anchor="none" style="mix-blend-mode: normal" data-fill-palette-color="tertiary"></path></g><g transform="matrix(1,0,0,1,183.09627400321193,80)"><svg viewBox="0 0 145.80745199357614 160" height="160" width="145.80745199357614"><g><svg viewBox="0 0 145.80745199357614 160" height="160" width="145.80745199357614"><g><svg viewBox="0 0 204.8 224.73474127676042" height="160" width="145.80745199357614"><g transform="matrix(1,0,0,1,0,136.48386441617103)"><svg viewBox="0 0 204.8 88.25087686058939" height="88.25087686058939" width="204.8"><g id="textblocktransform"><svg viewBox="0 0 204.8 88.25087686058939" height="88.25087686058939" width="204.8" id="textblock"><g><svg viewBox="0 0 204.8 61.5104991394148" height="61.5104991394148" width="204.8"><g transform="matrix(1,0,0,1,0,0)"><svg width="204.8" viewBox="3 -34.9 116.19 34.9" height="61.5104991394148" data-palette-color="#ffffff"><path d="M17 0L3 0 3-3.5 7.9-3.5 7.9-31.4 3-31.4 3-34.9 17-34.9 17-31.4 12.1-31.4 12.1-3.5 17-3.5 17 0ZM28.75 0L24.65 0 24.65-34.9 30.25-34.9 40.25-16.1 40.5-16.1 50.55-34.9 55.95-34.9 55.95 0 51.85 0 51.85-29.4 51.6-29.4 48.65-23.55 40.3-8.35 31.95-23.55 29-29.4 28.75-29.4 28.75 0ZM69.44 0L65.25 0 65.25-34.9 79.14-34.9Q82.3-34.9 84.47-33.68 86.64-32.45 87.77-30.23 88.89-28 88.89-24.9L88.89-24.9Q88.89-21.85 87.77-19.6 86.64-17.35 84.47-16.13 82.3-14.9 79.14-14.9L79.14-14.9 69.44-14.9 69.44 0ZM69.44-31.2L69.44-18.6 79.14-18.6Q80.8-18.6 81.97-19.18 83.14-19.75 83.77-20.88 84.39-22 84.39-23.6L84.39-23.6 84.39-26.2Q84.39-27.8 83.77-28.93 83.14-30.05 81.97-30.63 80.8-31.2 79.14-31.2L79.14-31.2 69.44-31.2ZM99.74 0L95.54 0 95.54-34.9 109.44-34.9Q112.59-34.9 114.77-33.68 116.94-32.45 118.07-30.23 119.19-28 119.19-24.9L119.19-24.9Q119.19-21.85 118.07-19.6 116.94-17.35 114.77-16.13 112.59-14.9 109.44-14.9L109.44-14.9 99.74-14.9 99.74 0ZM99.74-31.2L99.74-18.6 109.44-18.6Q111.09-18.6 112.27-19.18 113.44-19.75 114.07-20.88 114.69-22 114.69-23.6L114.69-23.6 114.69-26.2Q114.69-27.8 114.07-28.93 113.44-30.05 112.27-30.63 111.09-31.2 109.44-31.2L109.44-31.2 99.74-31.2Z" opacity="1" transform="matrix(1,0,0,1,0,0)" fill="#ffffff" class="wordmark-text-0" data-fill-palette-color="quaternary" id="text-0"></path></svg></g></svg></g><g transform="matrix(1,0,0,1,0,76.03165173425128)"><svg viewBox="0 0 204.8 12.219225126338099" height="12.219225126338099" width="204.8"><g transform="matrix(1,0,0,1,0,0)"><svg width="204.8" viewBox="2.5 -37.5 920.15 54.9" height="12.219225126338099" data-palette-color="#ffffff"><path d="M3.7-36Q3.7-36.25 3.3-36.4 2.9-36.55 2.5-36.55L2.5-36.55 2.5-37.5 11.7-37.5 11.7-36.55Q11.3-36.55 10.9-36.4 10.5-36.25 10.5-36L10.5-36 10.5-1.5Q10.5-1.25 10.9-1.1 11.3-0.95 11.7-0.95L11.7-0.95 11.7 0 2.5 0 2.5-0.95Q2.9-0.95 3.3-1.1 3.7-1.25 3.7-1.5L3.7-1.5 3.7-36ZM41.3-13.45L41.3-1.5Q41.3-1.25 41.68-1.1 42.05-0.95 42.45-0.95L42.45-0.95 42.45 0 33.65 0 33.65-0.95Q34.05-0.95 34.43-1.1 34.8-1.25 34.8-1.5L34.8-1.5 34.8-11.9Q34.8-14.45 33.55-16.28 32.3-18.1 29.8-18.1L29.8-18.1Q27.25-18.1 25.68-16.4 24.1-14.7 24.1-11.5L24.1-11.5 24.1-1.5Q24.1-1.25 24.48-1.1 24.85-0.95 25.25-0.95L25.25-0.95 25.25 0 16.5 0 16.5-0.95Q16.9-0.95 17.28-1.1 17.65-1.25 17.65-1.5L17.65-1.5 17.65-21.5Q17.65-21.75 17.28-21.9 16.9-22.05 16.55-22.05L16.55-22.05 16.55-23 24.1-23 24.1-20.95Q25.4-22.15 27.18-22.83 28.95-23.5 30.8-23.5L30.8-23.5Q34-23.5 36.38-22.15 38.75-20.8 40.03-18.53 41.3-16.25 41.3-13.45L41.3-13.45ZM73.45-23L73.45-22.05Q72.45-22.05 72.2-21.65L72.2-21.65 63.15-2.25Q63-1.9 63-1.65L63-1.65Q63-1.25 63.33-1.1 63.65-0.95 64-0.95L64-0.95 64 0 53.9 0 53.9-0.95Q54.25-0.95 54.6-1.13 54.95-1.3 54.95-1.75L54.95-1.75Q54.95-2 54.8-2.3L54.8-2.3 46.45-21.6Q46.3-22.05 45.25-22.05L45.25-22.05 45.25-23 53.95-23 53.95-22.05Q53.35-22.05 53.18-21.78 53-21.5 53.15-21.15L53.15-21.15 59.3-6.8 65.8-21.2Q65.85-21.25 65.85-21.35L65.85-21.35Q65.85-21.6 65.48-21.83 65.1-22.05 64.55-22.05L64.55-22.05 64.55-23 73.45-23ZM87.9-24.05Q91.75-24.05 94.55-22.38 97.35-20.7 98.8-17.85 100.25-15 100.25-11.55L100.25-11.55Q100.25-10.5 100.1-9.45L100.1-9.45 81.8-9.45Q82-7.05 83.9-5.7 85.8-4.35 88.45-4.35L88.45-4.35Q90.25-4.35 91.48-4.85 92.7-5.35 93.65-6.35L93.65-6.35Q93.75-6.55 93.75-6.6L93.75-6.6Q93.75-6.8 93.6-7.03 93.45-7.25 93.3-7.35L93.3-7.35 93.9-8.1 99.45-3.75 98.9-3Q98.15-3.45 97.85-3.1L97.85-3.1Q94.35 1.1 88.45 1.1L88.45 1.1Q84.65 1.1 81.75-0.58 78.85-2.25 77.28-5.08 75.7-7.9 75.7-11.35L75.7-11.35Q75.7-15 77.25-17.9 78.8-20.8 81.58-22.43 84.35-24.05 87.9-24.05L87.9-24.05ZM81.85-14.1L94.25-14.1Q94.05-16.15 92.18-17.57 90.3-19 87.95-19L87.95-19Q85.6-19 83.9-17.57 82.2-16.15 81.85-14.1L81.85-14.1ZM128.85-13.45L128.85-1.5Q128.85-1.25 129.23-1.1 129.6-0.95 130-0.95L130-0.95 130 0 121.2 0 121.2-0.95Q121.6-0.95 121.98-1.1 122.35-1.25 122.35-1.5L122.35-1.5 122.35-11.9Q122.35-14.45 121.1-16.28 119.85-18.1 117.35-18.1L117.35-18.1Q114.8-18.1 113.23-16.4 111.65-14.7 111.65-11.5L111.65-11.5 111.65-1.5Q111.65-1.25 112.03-1.1 112.4-0.95 112.8-0.95L112.8-0.95 112.8 0 104.05 0 104.05-0.95Q104.45-0.95 104.83-1.1 105.2-1.25 105.2-1.5L105.2-1.5 105.2-21.5Q105.2-21.75 104.83-21.9 104.45-22.05 104.1-22.05L104.1-22.05 104.1-23 111.65-23 111.65-20.95Q112.95-22.15 114.73-22.83 116.5-23.5 118.35-23.5L118.35-23.5Q121.55-23.5 123.93-22.15 126.3-20.8 127.58-18.53 128.85-16.25 128.85-13.45L128.85-13.45ZM147.05-24L148-24 148-16.4 147.05-16.4Q147.05-16.75 146.9-17.07 146.75-17.4 146.5-17.4L146.5-17.4 143.25-17.4 143.25-1.5Q143.25-1.25 143.6-1.1 143.95-0.95 144.3-0.95L144.3-0.95 144.3 0 136.15 0 136.15-0.95Q136.5-0.95 136.85-1.1 137.2-1.25 137.2-1.5L137.2-1.5 137.2-17.4 134.8-17.4Q134.55-17.4 134.4-17.07 134.25-16.75 134.25-16.4L134.25-16.4 133.3-16.4 133.3-24 134.25-24Q134.25-23.65 134.4-23.33 134.55-23 134.8-23L134.8-23 137.2-23 137.2-28.85Q137.2-29.1 136.85-29.25 136.5-29.4 136.15-29.4L136.15-29.4 136.15-30.35 144.3-30.35 144.3-29.4Q143.95-29.4 143.6-29.25 143.25-29.1 143.25-28.85L143.25-28.85 143.25-23 146.5-23Q146.75-23 146.9-23.33 147.05-23.65 147.05-24L147.05-24ZM163.25 0.6Q159.55 0.6 156.72-0.98 153.9-2.55 152.32-5.3 150.75-8.05 150.75-11.5L150.75-11.5Q150.75-14.9 152.32-17.7 153.9-20.5 156.75-22.13 159.6-23.75 163.25-23.75L163.25-23.75Q166.75-23.75 169.6-22.18 172.45-20.6 174.1-17.82 175.75-15.05 175.75-11.5L175.75-11.5Q175.75-8.4 174.28-5.63 172.8-2.85 169.95-1.13 167.1 0.6 163.25 0.6L163.25 0.6ZM163.25-5.15Q166.2-5.15 168.03-6.88 169.85-8.6 169.85-11.35L169.85-11.35Q169.85-14.2 168.03-16.05 166.2-17.9 163.25-17.9L163.25-17.9Q160.5-17.9 158.65-16.07 156.8-14.25 156.8-11.5L156.8-11.5Q156.8-8.6 158.65-6.88 160.5-5.15 163.25-5.15L163.25-5.15ZM194.25-24.5L195.2-24.5 195.2-16.45 194.25-16.45Q194.25-16.8 194.1-17.25 193.95-17.7 193.7-17.75L193.7-17.75 193.35-17.75Q191.8-17.75 190.22-16.88 188.65-16 187.63-14.58 186.6-13.15 186.6-11.55L186.6-11.55 186.6-1.5Q186.6-1.25 186.97-1.1 187.35-0.95 187.7-0.95L187.7-0.95 187.7 0 179.3 0 179.3-0.95Q179.65-0.95 180.03-1.1 180.4-1.25 180.4-1.5L180.4-1.5 180.4-21.5Q180.4-21.75 180.03-21.9 179.65-22.05 179.3-22.05L179.3-22.05 179.3-23 186.6-23 186.6-20.85Q187.95-22.1 189.85-22.85 191.75-23.6 193.65-23.6L193.65-23.6 193.7-23.6 193.75-23.6Q194-23.6 194.13-23.9 194.25-24.2 194.25-24.5L194.25-24.5ZM225.55-23L225.55-22.05Q224.5-22.05 224.25-21.65L224.25-21.65 206.75 12.8Q206.7 12.85 206.7 12.95L206.7 12.95Q206.7 13.25 207.05 13.45 207.4 13.65 207.95 13.65L207.95 13.65 207.95 14.6 198.55 14.6 198.55 13.65Q199.6 13.65 199.85 13.25L199.85 13.25 208-2.8 197.75-21.7Q197.55-22.05 196.45-22.05L196.45-22.05 196.45-23 205.7-23 205.7-22.05Q205.1-22.05 204.97-21.8 204.85-21.55 205.05-21.25L205.05-21.25 211.4-9.5 217.35-21.2Q217.4-21.25 217.4-21.35L217.4-21.35Q217.4-21.65 217.05-21.85 216.7-22.05 216.15-22.05L216.15-22.05 216.15-23 225.55-23ZM285.9-36L285.9-1.5Q285.9-1.25 286.27-1.1 286.65-0.95 287.05-0.95L287.05-0.95 287.05 0 278.3 0 278.3-0.95Q278.7-0.95 279.07-1.1 279.45-1.25 279.45-1.5L279.45-1.5 279.45-30.15 264.8 1.9 250.2-30.25 250.2-1.5Q250.2-1.25 250.57-1.1 250.95-0.95 251.35-0.95L251.35-0.95 251.35 0 242.55 0 242.55-0.95Q242.95-0.95 243.32-1.1 243.7-1.25 243.7-1.5L243.7-1.5 243.7-36Q243.7-36.25 243.32-36.4 242.95-36.55 242.6-36.55L242.6-36.55 242.6-37.5 255.5-37.5 255.5-36.55Q254.9-36.55 254.72-36.27 254.55-36 254.7-35.65L254.7-35.65 264.85-12.05 275.15-35.65Q275.25-35.95 274.85-36.25 274.45-36.55 273.85-36.55L273.85-36.55 273.85-37.5 287-37.5 287-36.55Q286.65-36.55 286.27-36.4 285.9-36.25 285.9-36L285.9-36ZM318.9-23L318.9-22.05Q318.55-22.05 318.17-21.9 317.8-21.75 317.8-21.5L317.8-21.5 317.8-1.5Q317.8-1.25 318.17-1.1 318.55-0.95 318.9-0.95L318.9-0.95 318.9 0 311.5 0 311.5-2.75Q308.35 0.65 303.55 0.65L303.55 0.65Q299.9 0.65 297.12-0.83 294.35-2.3 292.82-5.05 291.3-7.8 291.3-11.45L291.3-11.45Q291.3-15 292.97-17.78 294.65-20.55 297.45-22.08 300.25-23.6 303.55-23.6L303.55-23.6Q308.35-23.6 311.5-19.9L311.5-19.9 311.5-23 318.9-23ZM304.3-4.65Q306.35-4.65 307.97-5.58 309.6-6.5 310.5-8.03 311.4-9.55 311.4-11.3L311.4-11.3Q311.4-14.3 309.42-16.25 307.45-18.2 304.3-18.2L304.3-18.2Q301.25-18.2 299.27-16.3 297.3-14.4 297.3-11.45L297.3-11.45Q297.3-8.35 299.32-6.5 301.35-4.65 304.3-4.65L304.3-4.65ZM348.3-13.45L348.3-1.5Q348.3-1.25 348.67-1.1 349.05-0.95 349.45-0.95L349.45-0.95 349.45 0 340.65 0 340.65-0.95Q341.05-0.95 341.42-1.1 341.8-1.25 341.8-1.5L341.8-1.5 341.8-11.9Q341.8-14.45 340.55-16.28 339.3-18.1 336.8-18.1L336.8-18.1Q334.25-18.1 332.67-16.4 331.1-14.7 331.1-11.5L331.1-11.5 331.1-1.5Q331.1-1.25 331.47-1.1 331.85-0.95 332.25-0.95L332.25-0.95 332.25 0 323.5 0 323.5-0.95Q323.9-0.95 324.27-1.1 324.65-1.25 324.65-1.5L324.65-1.5 324.65-21.5Q324.65-21.75 324.27-21.9 323.9-22.05 323.55-22.05L323.55-22.05 323.55-23 331.1-23 331.1-20.95Q332.4-22.15 334.17-22.83 335.95-23.5 337.8-23.5L337.8-23.5Q341-23.5 343.37-22.15 345.75-20.8 347.02-18.53 348.3-16.25 348.3-13.45L348.3-13.45ZM381.1-23L381.1-22.05Q380.75-22.05 380.37-21.9 380-21.75 380-21.5L380-21.5 380-1.5Q380-1.25 380.37-1.1 380.75-0.95 381.1-0.95L381.1-0.95 381.1 0 373.7 0 373.7-2.75Q370.55 0.65 365.75 0.65L365.75 0.65Q362.1 0.65 359.32-0.83 356.55-2.3 355.02-5.05 353.5-7.8 353.5-11.45L353.5-11.45Q353.5-15 355.17-17.78 356.85-20.55 359.65-22.08 362.45-23.6 365.75-23.6L365.75-23.6Q370.55-23.6 373.7-19.9L373.7-19.9 373.7-23 381.1-23ZM366.5-4.65Q368.55-4.65 370.17-5.58 371.8-6.5 372.7-8.03 373.6-9.55 373.6-11.3L373.6-11.3Q373.6-14.3 371.62-16.25 369.65-18.2 366.5-18.2L366.5-18.2Q363.45-18.2 361.47-16.3 359.5-14.4 359.5-11.45L359.5-11.45Q359.5-8.35 361.52-6.5 363.55-4.65 366.5-4.65L366.5-4.65ZM405.1-23L412.45-23 412.45-22.05Q412.1-22.05 411.72-21.9 411.35-21.75 411.35-21.5L411.35-21.5 411.4 1.85Q411.4 8.1 407.8 11.53 404.2 14.95 398 14.95L398 14.95Q395.45 14.95 392.6 13.53 389.75 12.1 387.35 9.3L387.35 9.3Q387.3 9.15 387.05 9.15L387.05 9.15Q386.65 9.15 386.2 9.5L386.2 9.5 385.65 8.75 391.9 3.8 392.5 4.55Q392.25 4.75 392.02 5.1 391.8 5.45 391.95 5.7L391.95 5.7Q393.2 7.45 394.65 8.3 396.1 9.15 398.15 9.15L398.15 9.15Q401.4 9.15 403.25 7.58 405.1 6 405.1 2.8L405.1 2.8 405.1-1.75Q401.95 0.7 397.85 0.7L397.85 0.7Q394.15 0.7 391.27-0.83 388.4-2.35 386.77-5.13 385.15-7.9 385.15-11.5L385.15-11.5Q385.15-15.1 386.85-17.82 388.55-20.55 391.45-22.03 394.35-23.5 397.85-23.5L397.85-23.5Q402.05-23.5 405.1-21.2L405.1-21.2 405.1-23ZM398.15-4.65Q401.55-4.65 403.4-6.48 405.25-8.3 405.25-11.3L405.25-11.3Q405.25-14.3 403.25-16.25 401.25-18.2 398.15-18.2L398.15-18.2Q395.15-18.2 393.17-16.3 391.2-14.4 391.2-11.4L391.2-11.4Q391.2-8.3 393.2-6.48 395.2-4.65 398.15-4.65L398.15-4.65ZM428.9-24.05Q432.75-24.05 435.55-22.38 438.35-20.7 439.8-17.85 441.25-15 441.25-11.55L441.25-11.55Q441.25-10.5 441.1-9.45L441.1-9.45 422.8-9.45Q423-7.05 424.9-5.7 426.8-4.35 429.45-4.35L429.45-4.35Q431.25-4.35 432.47-4.85 433.7-5.35 434.65-6.35L434.65-6.35Q434.75-6.55 434.75-6.6L434.75-6.6Q434.75-6.8 434.6-7.03 434.45-7.25 434.3-7.35L434.3-7.35 434.9-8.1 440.45-3.75 439.9-3Q439.15-3.45 438.85-3.1L438.85-3.1Q435.35 1.1 429.45 1.1L429.45 1.1Q425.65 1.1 422.75-0.58 419.85-2.25 418.27-5.08 416.7-7.9 416.7-11.35L416.7-11.35Q416.7-15 418.25-17.9 419.8-20.8 422.57-22.43 425.35-24.05 428.9-24.05L428.9-24.05ZM422.85-14.1L435.25-14.1Q435.05-16.15 433.17-17.57 431.3-19 428.95-19L428.95-19Q426.6-19 424.9-17.57 423.2-16.15 422.85-14.1L422.85-14.1ZM482.2-13.45L482.2-1.5Q482.2-1.25 482.57-1.1 482.95-0.95 483.35-0.95L483.35-0.95 483.35 0 474.55 0 474.55-0.95Q474.95-0.95 475.32-1.1 475.7-1.25 475.7-1.5L475.7-1.5 475.7-11.9Q475.7-18.1 471.6-18.1L471.6-18.1Q469.6-18.1 468.5-16.45 467.4-14.8 467.4-11.5L467.4-11.5 467.4-1.5Q467.4-1.25 467.77-1.1 468.15-0.95 468.55-0.95L468.55-0.95 468.55 0 459.8 0 459.8-0.95Q460.2-0.95 460.57-1.1 460.95-1.25 460.95-1.5L460.95-1.5 460.95-11.9Q460.95-14.65 460.1-16.38 459.25-18.1 456.95-18.1L456.95-18.1Q455.15-18.1 454.07-16.78 453-15.45 452.8-12.8L452.8-12.8 452.8-1.5Q452.8-1.25 453.2-1.1 453.6-0.95 453.95-0.95L453.95-0.95 453.95 0 445.05 0 445.05-0.95Q445.4-0.95 445.8-1.1 446.2-1.25 446.2-1.5L446.2-1.5 446.2-21.5Q446.2-21.75 445.82-21.9 445.45-22.05 445.1-22.05L445.1-22.05 445.1-23 452.8-23 452.8-21.65Q454.8-23.5 457.9-23.5L457.9-23.5Q460.7-23.5 462.72-22.43 464.75-21.35 465.9-19.45L465.9-19.45Q466.8-21.3 468.67-22.4 470.55-23.5 472.9-23.5L472.9-23.5Q477.6-23.5 479.9-20.7 482.2-17.9 482.2-13.45L482.2-13.45ZM499.6-24.05Q503.45-24.05 506.25-22.38 509.05-20.7 510.5-17.85 511.95-15 511.95-11.55L511.95-11.55Q511.95-10.5 511.8-9.45L511.8-9.45 493.5-9.45Q493.7-7.05 495.6-5.7 497.5-4.35 500.15-4.35L500.15-4.35Q501.95-4.35 503.17-4.85 504.4-5.35 505.35-6.35L505.35-6.35Q505.45-6.55 505.45-6.6L505.45-6.6Q505.45-6.8 505.3-7.03 505.15-7.25 505-7.35L505-7.35 505.6-8.1 511.15-3.75 510.6-3Q509.85-3.45 509.55-3.1L509.55-3.1Q506.05 1.1 500.15 1.1L500.15 1.1Q496.35 1.1 493.45-0.58 490.55-2.25 488.97-5.08 487.4-7.9 487.4-11.35L487.4-11.35Q487.4-15 488.95-17.9 490.5-20.8 493.27-22.43 496.05-24.05 499.6-24.05L499.6-24.05ZM493.55-14.1L505.95-14.1Q505.75-16.15 503.88-17.57 502-19 499.65-19L499.65-19Q497.3-19 495.6-17.57 493.9-16.15 493.55-14.1L493.55-14.1ZM540.55-13.45L540.55-1.5Q540.55-1.25 540.92-1.1 541.3-0.95 541.7-0.95L541.7-0.95 541.7 0 532.9 0 532.9-0.95Q533.3-0.95 533.67-1.1 534.05-1.25 534.05-1.5L534.05-1.5 534.05-11.9Q534.05-14.45 532.8-16.28 531.55-18.1 529.05-18.1L529.05-18.1Q526.5-18.1 524.92-16.4 523.35-14.7 523.35-11.5L523.35-11.5 523.35-1.5Q523.35-1.25 523.72-1.1 524.1-0.95 524.5-0.95L524.5-0.95 524.5 0 515.75 0 515.75-0.95Q516.15-0.95 516.52-1.1 516.9-1.25 516.9-1.5L516.9-1.5 516.9-21.5Q516.9-21.75 516.52-21.9 516.15-22.05 515.8-22.05L515.8-22.05 515.8-23 523.35-23 523.35-20.95Q524.65-22.15 526.42-22.83 528.2-23.5 530.05-23.5L530.05-23.5Q533.25-23.5 535.62-22.15 538-20.8 539.27-18.53 540.55-16.25 540.55-13.45L540.55-13.45ZM558.75-24L559.7-24 559.7-16.4 558.75-16.4Q558.75-16.75 558.6-17.07 558.45-17.4 558.2-17.4L558.2-17.4 554.95-17.4 554.95-1.5Q554.95-1.25 555.3-1.1 555.65-0.95 556-0.95L556-0.95 556 0 547.85 0 547.85-0.95Q548.2-0.95 548.55-1.1 548.9-1.25 548.9-1.5L548.9-1.5 548.9-17.4 546.5-17.4Q546.25-17.4 546.1-17.07 545.95-16.75 545.95-16.4L545.95-16.4 545-16.4 545-24 545.95-24Q545.95-23.65 546.1-23.33 546.25-23 546.5-23L546.5-23 548.9-23 548.9-28.85Q548.9-29.1 548.55-29.25 548.2-29.4 547.85-29.4L547.85-29.4 547.85-30.35 556-30.35 556-29.4Q555.65-29.4 555.3-29.25 554.95-29.1 554.95-28.85L554.95-28.85 554.95-23 558.2-23Q558.45-23 558.6-23.33 558.75-23.65 558.75-24L558.75-24ZM593.15-37.5Q597.1-37.5 600.05-36.05 603-34.6 604.57-32.02 606.15-29.45 606.15-26.15L606.15-26.15Q606.15-22.5 604.4-19.98 602.65-17.45 599.8-16.18 596.95-14.9 593.7-14.9L593.7-14.9 585-14.9 585-1.5Q585-1.25 585.4-1.1 585.8-0.95 586.15-0.95L586.15-0.95 586.15 0 577.2 0 577.2-0.95Q577.55-0.95 577.95-1.1 578.35-1.25 578.35-1.5L578.35-1.5 578.35-36Q578.35-36.25 577.97-36.4 577.6-36.55 577.25-36.55L577.25-36.55 577.25-37.5 593.15-37.5ZM585-21.25L594.1-21.25Q595.85-21.25 597.2-22.03 598.55-22.8 599.25-24 599.95-25.2 599.95-26.5L599.95-26.5Q599.95-28.45 598.3-29.95 596.65-31.45 594.15-31.45L594.15-31.45 585-31.45 585-21.25ZM637.75-23L637.75-22.05Q636.7-22.05 636.45-21.65L636.45-21.65 618.95 12.8Q618.9 12.85 618.9 12.95L618.9 12.95Q618.9 13.25 619.25 13.45 619.6 13.65 620.15 13.65L620.15 13.65 620.15 14.6 610.75 14.6 610.75 13.65Q611.8 13.65 612.05 13.25L612.05 13.25 620.2-2.8 609.95-21.7Q609.75-22.05 608.65-22.05L608.65-22.05 608.65-23 617.9-23 617.9-22.05Q617.3-22.05 617.17-21.8 617.05-21.55 617.25-21.25L617.25-21.25 623.6-9.5 629.55-21.2Q629.6-21.25 629.6-21.35L629.6-21.35Q629.6-21.65 629.25-21.85 628.9-22.05 628.35-22.05L628.35-22.05 628.35-23 637.75-23ZM653-24L653.95-24 653.95-16.4 653-16.4Q653-16.75 652.85-17.07 652.7-17.4 652.45-17.4L652.45-17.4 649.2-17.4 649.2-1.5Q649.2-1.25 649.55-1.1 649.9-0.95 650.25-0.95L650.25-0.95 650.25 0 642.1 0 642.1-0.95Q642.45-0.95 642.8-1.1 643.15-1.25 643.15-1.5L643.15-1.5 643.15-17.4 640.75-17.4Q640.5-17.4 640.35-17.07 640.2-16.75 640.2-16.4L640.2-16.4 639.25-16.4 639.25-24 640.2-24Q640.2-23.65 640.35-23.33 640.5-23 640.75-23L640.75-23 643.15-23 643.15-28.85Q643.15-29.1 642.8-29.25 642.45-29.4 642.1-29.4L642.1-29.4 642.1-30.35 650.25-30.35 650.25-29.4Q649.9-29.4 649.55-29.25 649.2-29.1 649.2-28.85L649.2-28.85 649.2-23 652.45-23Q652.7-23 652.85-23.33 653-23.65 653-24L653-24ZM682.05-13.45L682.05-1.5Q682.05-1.25 682.43-1.1 682.8-0.95 683.2-0.95L683.2-0.95 683.2 0 674.4 0 674.4-0.95Q674.8-0.95 675.18-1.1 675.55-1.25 675.55-1.5L675.55-1.5 675.55-11.9Q675.55-14.45 674.3-16.28 673.05-18.1 670.55-18.1L670.55-18.1Q668-18.1 666.3-16.4 664.6-14.7 664.6-11.5L664.6-11.5 664.6-1.5Q664.6-1.25 664.98-1.1 665.35-0.95 665.7-0.95L665.7-0.95 665.7 0 657.25 0 657.25-0.95Q657.6-0.95 657.98-1.1 658.35-1.25 658.35-1.5L658.35-1.5 658.35-36Q658.35-36.25 657.98-36.4 657.6-36.55 657.25-36.55L657.25-36.55 657.25-37.5 665.7-37.5 665.7-36.55Q665.35-36.55 664.98-36.4 664.6-36.25 664.6-36L664.6-36 664.6-20.75Q665.9-22 667.78-22.75 669.65-23.5 671.55-23.5L671.55-23.5Q674.8-23.5 677.18-22.15 679.55-20.8 680.8-18.53 682.05-16.25 682.05-13.45L682.05-13.45ZM699.75 0.6Q696.05 0.6 693.23-0.98 690.4-2.55 688.83-5.3 687.25-8.05 687.25-11.5L687.25-11.5Q687.25-14.9 688.83-17.7 690.4-20.5 693.25-22.13 696.1-23.75 699.75-23.75L699.75-23.75Q703.25-23.75 706.1-22.18 708.95-20.6 710.6-17.82 712.25-15.05 712.25-11.5L712.25-11.5Q712.25-8.4 710.77-5.63 709.3-2.85 706.45-1.13 703.6 0.6 699.75 0.6L699.75 0.6ZM699.75-5.15Q702.7-5.15 704.52-6.88 706.35-8.6 706.35-11.35L706.35-11.35Q706.35-14.2 704.52-16.05 702.7-17.9 699.75-17.9L699.75-17.9Q697-17.9 695.15-16.07 693.3-14.25 693.3-11.5L693.3-11.5Q693.3-8.6 695.15-6.88 697-5.15 699.75-5.15L699.75-5.15ZM741.1-13.45L741.1-1.5Q741.1-1.25 741.48-1.1 741.85-0.95 742.25-0.95L742.25-0.95 742.25 0 733.45 0 733.45-0.95Q733.85-0.95 734.23-1.1 734.6-1.25 734.6-1.5L734.6-1.5 734.6-11.9Q734.6-14.45 733.35-16.28 732.1-18.1 729.6-18.1L729.6-18.1Q727.05-18.1 725.48-16.4 723.9-14.7 723.9-11.5L723.9-11.5 723.9-1.5Q723.9-1.25 724.27-1.1 724.65-0.95 725.05-0.95L725.05-0.95 725.05 0 716.3 0 716.3-0.95Q716.7-0.95 717.08-1.1 717.45-1.25 717.45-1.5L717.45-1.5 717.45-21.5Q717.45-21.75 717.08-21.9 716.7-22.05 716.35-22.05L716.35-22.05 716.35-23 723.9-23 723.9-20.95Q725.2-22.15 726.98-22.83 728.75-23.5 730.6-23.5L730.6-23.5Q733.8-23.5 736.17-22.15 738.55-20.8 739.83-18.53 741.1-16.25 741.1-13.45L741.1-13.45ZM777-37.5Q780.95-37.5 783.9-36.05 786.85-34.6 788.42-32.02 790-29.45 790-26.15L790-26.15Q790-22.5 788.25-19.98 786.5-17.45 783.65-16.18 780.8-14.9 777.55-14.9L777.55-14.9 768.85-14.9 768.85-1.5Q768.85-1.25 769.25-1.1 769.65-0.95 770-0.95L770-0.95 770 0 761.05 0 761.05-0.95Q761.4-0.95 761.8-1.1 762.2-1.25 762.2-1.5L762.2-1.5 762.2-36Q762.2-36.25 761.82-36.4 761.45-36.55 761.1-36.55L761.1-36.55 761.1-37.5 777-37.5ZM768.85-21.25L777.95-21.25Q779.7-21.25 781.05-22.03 782.4-22.8 783.1-24 783.8-25.2 783.8-26.5L783.8-26.5Q783.8-28.45 782.15-29.95 780.5-31.45 778-31.45L778-31.45 768.85-31.45 768.85-21.25ZM808.75-24.5L809.7-24.5 809.7-16.45 808.75-16.45Q808.75-16.8 808.6-17.25 808.45-17.7 808.2-17.75L808.2-17.75 807.85-17.75Q806.3-17.75 804.73-16.88 803.15-16 802.13-14.58 801.1-13.15 801.1-11.55L801.1-11.55 801.1-1.5Q801.1-1.25 801.48-1.1 801.85-0.95 802.2-0.95L802.2-0.95 802.2 0 793.8 0 793.8-0.95Q794.15-0.95 794.52-1.1 794.9-1.25 794.9-1.5L794.9-1.5 794.9-21.5Q794.9-21.75 794.52-21.9 794.15-22.05 793.8-22.05L793.8-22.05 793.8-23 801.1-23 801.1-20.85Q802.45-22.1 804.35-22.85 806.25-23.6 808.15-23.6L808.15-23.6 808.2-23.6 808.25-23.6Q808.5-23.6 808.63-23.9 808.75-24.2 808.75-24.5L808.75-24.5ZM824.7 0.6Q821 0.6 818.18-0.98 815.35-2.55 813.78-5.3 812.2-8.05 812.2-11.5L812.2-11.5Q812.2-14.9 813.78-17.7 815.35-20.5 818.2-22.13 821.05-23.75 824.7-23.75L824.7-23.75Q828.2-23.75 831.05-22.18 833.9-20.6 835.55-17.82 837.2-15.05 837.2-11.5L837.2-11.5Q837.2-8.4 835.73-5.63 834.25-2.85 831.4-1.13 828.55 0.6 824.7 0.6L824.7 0.6ZM824.7-5.15Q827.65-5.15 829.48-6.88 831.3-8.6 831.3-11.35L831.3-11.35Q831.3-14.2 829.48-16.05 827.65-17.9 824.7-17.9L824.7-17.9Q821.95-17.9 820.1-16.07 818.25-14.25 818.25-11.5L818.25-11.5Q818.25-8.6 820.1-6.88 821.95-5.15 824.7-5.15L824.7-5.15ZM846.1-27.15Q844.5-27.15 843.4-28.25 842.3-29.35 842.3-31L842.3-31Q842.3-32.55 843.43-33.68 844.55-34.8 846.1-34.8L846.1-34.8Q847.65-34.8 848.78-33.68 849.9-32.55 849.9-31L849.9-31Q849.9-29.35 848.8-28.25 847.7-27.15 846.1-27.15L846.1-27.15ZM849.35-21.5L849.35 4Q849.35 7.85 848.3 10.38 847.25 12.9 844.6 15.6L844.6 15.6 844.5 15.8Q844.5 16 844.68 16.28 844.85 16.55 845.05 16.7L845.05 16.7 844.4 17.4 837.8 11.55 838.45 10.85Q838.75 11.1 839.13 11.25 839.5 11.4 839.7 11.2L839.7 11.2Q841.25 9.55 842.05 8 842.85 6.45 842.85 4.65L842.85 4.65 842.85-21.5Q842.85-21.75 842.48-21.9 842.1-22.05 841.7-22.05L841.7-22.05 841.7-23 850.5-23 850.5-22.05Q850.1-22.05 849.73-21.9 849.35-21.75 849.35-21.5L849.35-21.5ZM867.45-24.05Q871.3-24.05 874.1-22.38 876.9-20.7 878.35-17.85 879.8-15 879.8-11.55L879.8-11.55Q879.8-10.5 879.65-9.45L879.65-9.45 861.35-9.45Q861.55-7.05 863.45-5.7 865.35-4.35 868-4.35L868-4.35Q869.8-4.35 871.02-4.85 872.25-5.35 873.2-6.35L873.2-6.35Q873.3-6.55 873.3-6.6L873.3-6.6Q873.3-6.8 873.15-7.03 873-7.25 872.85-7.35L872.85-7.35 873.45-8.1 879-3.75 878.45-3Q877.7-3.45 877.4-3.1L877.4-3.1Q873.9 1.1 868 1.1L868 1.1Q864.2 1.1 861.3-0.58 858.4-2.25 856.83-5.08 855.25-7.9 855.25-11.35L855.25-11.35Q855.25-15 856.8-17.9 858.35-20.8 861.13-22.43 863.9-24.05 867.45-24.05L867.45-24.05ZM861.4-14.1L873.8-14.1Q873.6-16.15 871.73-17.57 869.85-19 867.5-19L867.5-19Q865.15-19 863.45-17.57 861.75-16.15 861.4-14.1L861.4-14.1ZM895 1.05Q891.8 1.05 889.05-0.55 886.3-2.15 884.67-4.9 883.05-7.65 883.05-10.9L883.05-10.9Q883.05-14.75 884.67-17.68 886.3-20.6 889.05-22.18 891.8-23.75 895.1-23.75L895.1-23.75Q897.45-23.75 899.13-23.2 900.8-22.65 901.82-21.88 902.85-21.1 904.4-19.7L904.4-19.7Q904.5-19.6 904.65-19.6L904.65-19.6Q904.85-19.6 905.13-19.75 905.4-19.9 905.55-20.05L905.55-20.05 906.2-19.35 900.8-14.35 900.15-15.05Q900.4-15.25 900.57-15.63 900.75-16 900.6-16.2L900.6-16.2Q898.8-18.4 895.65-18.4L895.65-18.4Q892.8-18.4 890.88-16.5 888.95-14.6 888.95-11.55L888.95-11.55Q888.95-8.4 890.8-6.5 892.65-4.6 895.65-4.6L895.65-4.6Q897.15-4.6 898.1-4.98 899.05-5.35 900.25-6.4L900.25-6.4Q900.35-6.5 900.35-6.65L900.35-6.65Q900.35-6.95 900-7.3L900-7.3 900.6-8.05 906-3.55 905.4-2.85Q904.6-3.3 904.3-3L904.3-3Q902.45-0.95 900.42 0.05 898.4 1.05 895 1.05L895 1.05ZM921.7-24L922.65-24 922.65-16.4 921.7-16.4Q921.7-16.75 921.55-17.07 921.4-17.4 921.15-17.4L921.15-17.4 917.9-17.4 917.9-1.5Q917.9-1.25 918.25-1.1 918.6-0.95 918.95-0.95L918.95-0.95 918.95 0 910.8 0 910.8-0.95Q911.15-0.95 911.5-1.1 911.85-1.25 911.85-1.5L911.85-1.5 911.85-17.4 909.45-17.4Q909.2-17.4 909.05-17.07 908.9-16.75 908.9-16.4L908.9-16.4 907.95-16.4 907.95-24 908.9-24Q908.9-23.65 909.05-23.33 909.2-23 909.45-23L909.45-23 911.85-23 911.85-28.85Q911.85-29.1 911.5-29.25 911.15-29.4 910.8-29.4L910.8-29.4 910.8-30.35 918.95-30.35 918.95-29.4Q918.6-29.4 918.25-29.25 917.9-29.1 917.9-28.85L917.9-28.85 917.9-23 921.15-23Q921.4-23 921.55-23.33 921.7-23.65 921.7-24L921.7-24Z" opacity="1" transform="matrix(1,0,0,1,0,0)" fill="#ffffff" class="slogan-text-1" data-fill-palette-color="quaternary" id="text-1"></path></svg></g></svg></g></svg></g></svg></g><g transform="matrix(1,0,0,1,57.94558587296315,0)"><svg viewBox="0 0 88.90882825407371 121.96271182133454" height="121.96271182133454" width="88.90882825407371"><g><svg xmlns="http://www.w3.org/2000/svg" xmlns:xlink="http://www.w3.org/1999/xlink" version="1.1" x="0" y="0" viewBox="15.034725382710626 2.05 69.87308711728937 95.85000000000001" style="enable-background:new 0 0 100 100;" xml:space="preserve" height="121.96271182133454" width="88.90882825407371" class="icon-icon-0" data-fill-palette-color="quaternary" id="icon-0"><g fill="#ffffff" data-fill-palette-color="quaternary"><path d="M33.9 20S35.4 22.7 36.7 26.3C37.8 29.3 40.6 30.1 43.4 29.8 46.1 29.5 49.1 24.9 52.9 21 53.3 20.6 53.5 20.1 53.6 19.6L53.8 17.6S55.7 19.8 58.2 18.5 61.7 14.4 64.8 13.5C64.8 13.5 66.4 9.1 70.8 7.2S76.8 2.8 76.8 2.8 69 4.4 65.5 4.4 52.6 6.6 52.3 8.2C52.3 8.2 51.7 6.9 56.4 4.7 56.4 4.7 50.1 1.9 45.7 2.2 45.7 2.2 41.6 1.6 39.1 2.8S34.6 7 34.6 7 31.9 11.2 31.9 14 33.9 20 33.9 20M55.2 14.5C55.4 14.3 55.7 14 56 13.8 56.8 13 54.5 10.3 59.6 8.9 64.6 7.4 67.3 7 67.3 7S64.8 8.9 63.1 11.4C62.8 11.9 61.7 12.2 61.1 12.4 59.5 13 58.6 13.7 58 15.1 57.6 16 56.4 15.8 55.6 15.5 55 15.4 54.8 14.8 55.2 14.5M44.1 17.5L49.8 16.2S49.5 19 46.7 19.3C43.8 19.7 44.1 17.5 44.1 17.5M37.6 17.1S38.9 19.6 36.7 19.6 34.5 16.1 34.5 16.1z" fill="#ffffff" data-fill-palette-color="quaternary"></path><path d="M20.5 8.7C23.6 10.6 25.2 14.7 25.2 14.7 27.4 15.3 28 17.8 30.5 19.7S32.7 21 32.7 21 31.1 19.4 30.5 15.7C29.9 15.4 29 14.7 27.5 13.4 27.5 13.4 26.7 11.8 23.4 8.1 23.4 8.1 24.6 8.6 28.2 10.6 29.3 11.2 30.5 10.7 31.2 10.4 32 8.4 32.9 6.8 32.9 6.8S28.5 7.3 26.9 6.8C23.1 5.5 15.6 3 15.6 3S17.3 6.9 20.5 8.7" fill="#ffffff" data-fill-palette-color="quaternary"></path><path d="M59.1 67.4C61 63.6 64.3 65.1 64.3 65.1L61.6 57.4S57.2 61.2 50.1 60.5C44.1 60 39.2 57.8 39.2 57.8L34.6 62.6S39.3 65.9 40.3 67.2C42.8 70.8 45.5 74.9 45.5 74.9L47.4 70.5S49.3 71.3 49.3 72 50.6 74.9 50.6 74.9L51.6 70.3 54.3 77.6V73.4S54.3 71.1 55.6 71.9L57.1 72.3C57 72.5 58.3 69 59.1 67.4" fill="#ffffff" data-fill-palette-color="quaternary"></path><path d="M33.3 64.1S29.7 68.9 28.5 70.2C27.2 71.5 27.5 73.3 27.5 73.3S32.3 86.1 31.7 87.7C31.1 89.4 29 90 27.3 91.9 27.3 91.9 24.4 92.5 24.4 93.8S25.9 94.6 25.9 94.6L28.2 93.6S25.1 95.7 28 95.7L30.5 94S28.6 95.5 29.9 96.5 33.2 95.5 33.9 95C34.5 94.6 38.7 93.3 37.9 90.2S38.3 84.1 38.3 79.7 36.6 73.4 36.6 73.4 37.9 73.4 38.5 75.1L41.6 71.8C41.5 71.8 39.4 67.2 33.3 64.1" fill="#ffffff" data-fill-palette-color="quaternary"></path><path d="M72.3 88.8S70.6 79.8 68.7 77.9 64.7 67.2 64.7 67.2 62.4 66.2 60.7 67.8C59 69.5 58.2 74.1 58.2 74.1H56.5L59.8 79.1S60.5 80.3 60.9 81.8C61.2 83.2 62 84.5 63 85.5 63.8 86.3 64.7 87.2 65.5 87.8 67.6 89.5 68.2 90.5 68.4 91.8S68.2 94.1 66.9 95.6 66.3 97.5 68.4 97.5 71.5 97.9 72.8 97.9 77 97.1 76.1 95.6C75.4 94.2 72.3 88.8 72.3 88.8" fill="#ffffff" data-fill-palette-color="quaternary"></path><path d="M84.8 62.2C84.2 58.6 83.3 57.4 82.3 57.2S79.2 53.9 79.2 53.9 79.2 48.7 76.3 43.9 70.6 39.3 67.7 34.3 60 27.6 57.4 26.6C54.9 25.6 53.2 23.3 53.2 23.3L51.5 25 50.2 26.5C48.9 28 45.6 30.7 45.6 30.7 38.5 34 36.2 29 36.2 29L34.3 25.2S29.5 29.4 28.9 32.5 29.3 43.6 29.3 43.6C28.7 45.3 21.8 50.3 21.8 50.3S15.7 56.2 15.1 57.8C14.5 59.5 18.2 63.9 19.5 63.9S22.4 62.9 22.8 62C23.2 61.2 22.4 59.3 22.4 59.3 23.7 59.1 24.3 55.1 24.3 55.1S30.2 52.6 31.8 51.5C35.4 49.2 35.4 45.6 35.4 45.6L35.2 41.8S34.6 38.7 34.4 37.6C34.2 36.6 32.1 34.7 32.1 34.7S34.4 34.3 35.2 36.6 36.7 41.4 36.7 41.4 37 42.2 37.1 44.1C37.7 43.8 38.8 43.3 39.4 42.8 39.4 42.8 38.2 44.8 37.3 46.9V48.5C37.3 53.7 39.6 55.8 39.6 55.8L44.6 57.7C53.4 61.3 61.1 56 61.1 56L59.2 49.5 56.5 56S56.1 54.1 57.1 52 60.4 42.6 60.4 42.6 56.8 39 56.1 39C55.5 39 52.8 40.3 52.8 40.3S55.5 36.3 56.6 37.6 66.4 44.3 66.4 44.3C70.2 51 73.5 52.7 73.5 53.3S75.2 55 71.4 56.6C67.6 58.3 70.8 62.3 71.6 60.6S74.9 59.1 75.6 60C76.2 60.8 74.3 62.9 73.7 64.4S73.7 67.1 74.5 67.1 77.4 62.3 77.4 62.3 76.1 67.3 77.4 67.5 79.9 61.6 79.9 61.6 80.1 63.7 79.7 64.9C79.3 66.2 79.3 68.7 81 66.8S82.5 61.4 82.5 61.4C83.5 63.5 83.3 65.4 83.3 65.4S85.4 65.8 84.8 62.2" fill="#ffffff" data-fill-palette-color="quaternary"></path></g></svg></g></svg></g><g></g></svg></g></svg></g></svg></g></svg></g><defs></defs></svg><rect width="512" height="320" fill="none" stroke="none" visibility="hidden"></rect></g></svg></g></svg>